<svg width="241" height="118" viewBox="0 0 241 118" fill="none" xmlns="http://www.w3.org/2000/svg">
<path d="M8.08989 111.62C12.7297 111.62 16.0608 108.051 16.0608 103.411V80.3314H38.7839C42.9478 80.3314 46.16 77.2382 46.16 73.0743C46.16 69.0294 43.0668 65.8172 38.7839 65.8172H16.0608V46.1873H45.2082C49.3721 46.1873 52.5843 42.9752 52.5843 38.9302C52.5843 34.7663 49.4911 31.6731 45.2082 31.6731H8.20886C3.4501 31.6731 0 35.1232 0 39.882V103.411C0 108.051 3.33113 111.62 8.08989 111.62Z" fill="white"/>
<circle cx="205.612" cy="80.9374" r="27.3044" stroke="#242424" stroke-width="0.847825" stroke-linecap="round" stroke-linejoin="round" stroke-dasharray="1.14 3.41"/>
<path d="M171.979 83.0488C171.979 97.8605 159.972 109.868 145.16 109.868C130.349 109.868 118.341 97.8605 118.341 83.0488C118.341 68.2372 130.349 56.23 145.16 56.23C159.972 56.23 171.979 68.2372 171.979 83.0488ZM134.204 83.0488C134.204 89.0995 139.109 94.0046 145.16 94.0046C151.211 94.0046 156.116 89.0995 156.116 83.0488C156.116 76.9982 151.211 72.0931 145.16 72.0931C139.109 72.0931 134.204 76.9982 134.204 83.0488Z" fill="#FF863B"/>
<path d="M110.296 83.0488C110.296 97.8605 98.2887 109.868 83.4771 109.868C68.6654 109.868 56.6582 97.8605 56.6582 83.0488C56.6582 68.2372 68.6654 56.23 83.4771 56.23C98.2887 56.23 110.296 68.2372 110.296 83.0488ZM72.5213 83.0488C72.5213 89.0995 77.4264 94.0046 83.4771 94.0046C89.5277 94.0046 94.4328 89.0995 94.4328 83.0488C94.4328 76.9982 89.5277 72.0931 83.4771 72.0931C77.4264 72.0931 72.5213 76.9982 72.5213 83.0488Z" fill="#FF863B"/>
<path fill-rule="evenodd" clip-rule="evenodd" d="M44.7119 101.832C44.7119 101.345 45.1069 100.95 45.5941 100.95H59.0271C59.5143 100.95 59.9093 101.345 59.9093 101.832C59.9093 102.32 59.5143 102.715 59.0271 102.715H45.5941C45.1069 102.715 44.7119 102.32 44.7119 101.832Z" fill="#FF863B"/>
<path fill-rule="evenodd" clip-rule="evenodd" d="M106.476 101.832C106.476 101.345 106.871 100.95 107.358 100.95H120.791C121.278 100.95 121.673 101.345 121.673 101.832C121.673 102.32 121.278 102.715 120.791 102.715H107.358C106.871 102.715 106.476 102.32 106.476 101.832Z" fill="#FF863B"/>
<path fill-rule="evenodd" clip-rule="evenodd" d="M33.9839 108.985C33.9839 108.498 34.3789 108.103 34.8661 108.103L59.0266 108.103C59.5138 108.103 59.9088 108.498 59.9088 108.985C59.9088 109.472 59.5138 109.867 59.0266 109.867L34.8661 109.867C34.3789 109.867 33.9839 109.472 33.9839 108.985Z" fill="#FF863B"/>
<path fill-rule="evenodd" clip-rule="evenodd" d="M95.749 108.985C95.749 108.498 96.144 108.103 96.6312 108.103L120.792 108.103C121.279 108.103 121.674 108.498 121.674 108.985C121.674 109.472 121.279 109.867 120.792 109.867L96.6312 109.867C96.144 109.867 95.749 109.472 95.749 108.985Z" fill="#FF863B"/>
<path fill-rule="evenodd" clip-rule="evenodd" d="M44.7119 116.137C44.7119 115.65 45.1069 115.255 45.5941 115.255L69.7546 115.255C70.2418 115.255 70.6368 115.65 70.6368 116.137C70.6368 116.625 70.2418 117.02 69.7546 117.02L45.5941 117.02C45.1069 117.02 44.7119 116.625 44.7119 116.137Z" fill="#FF863B"/>
<path fill-rule="evenodd" clip-rule="evenodd" d="M106.476 116.137C106.476 115.65 106.871 115.255 107.358 115.255L131.518 115.255C132.006 115.255 132.4 115.65 132.4 116.137C132.4 116.625 132.006 117.02 131.518 117.02L107.358 117.02C106.871 117.02 106.476 116.625 106.476 116.137Z" fill="#FF863B"/>
<path d="M153.928 53.147C156.082 53.147 157.847 51.3968 157.65 49.2516C156.744 39.4301 152.436 30.1838 145.405 23.1521C137.449 15.1969 126.66 10.7278 115.41 10.7278C104.159 10.7278 93.3698 15.1969 85.4146 23.1521C78.3829 30.1838 74.0749 39.4301 73.1694 49.2516C72.9717 51.3968 74.7367 53.147 76.8909 53.147L115.41 53.147H153.928Z" fill="#FF863B"/>
<path d="M120.773 7.80186C120.773 11.0332 118.372 13.6528 115.41 13.6528C112.448 13.6528 110.046 11.0332 110.046 7.80186C110.046 4.57048 112.448 1.95093 115.41 1.95093C118.372 1.95093 120.773 4.57048 120.773 7.80186Z" fill="#0D0D0D"/>
<path fill-rule="evenodd" clip-rule="evenodd" d="M115.409 3.90062C113.681 3.90062 111.996 5.48378 111.996 7.80124C111.996 10.1187 113.681 11.7019 115.409 11.7019C117.138 11.7019 118.822 10.1187 118.822 7.80124C118.822 5.48378 117.138 3.90062 115.409 3.90062ZM108.096 7.80124C108.096 3.65595 111.214 0 115.409 0C119.605 0 122.723 3.65595 122.723 7.80124C122.723 11.9465 119.605 15.6025 115.409 15.6025C111.214 15.6025 108.096 11.9465 108.096 7.80124Z" fill="#FF863B"/>
<path d="M98.0889 23.8925C97.6158 23.1067 96.5961 22.8442 95.827 23.344C90.0122 27.1226 85.4484 32.5016 82.7023 38.812C82.3276 39.6731 82.7792 40.6557 83.6605 40.9799C84.5306 41.3 85.4919 40.8568 85.8654 40.0082C88.3294 34.4099 92.3775 29.6292 97.5235 26.2401C98.3028 25.7269 98.5702 24.6919 98.0889 23.8925Z" fill="#0D0D0D"/>
<path d="M104.866 20.8667C104.577 19.9956 103.638 19.5166 102.779 19.8384C101.858 20.1831 100.952 20.5654 100.063 20.9842C99.22 21.3817 98.9134 22.4108 99.3598 23.2292C99.7989 24.0344 100.802 24.3322 101.634 23.9443C102.346 23.6117 103.071 23.3049 103.807 23.0248C104.674 22.6943 105.158 21.7479 104.866 20.8667Z" fill="#0D0D0D"/>
<rect x="222.189" y="30.2295" width="18.528" height="79.9627" rx="9.26398" fill="white"/>
<path d="M234.866 81.425C234.866 97.3127 221.987 110.192 206.099 110.192C190.211 110.192 177.332 97.3127 177.332 81.425C177.332 65.5374 190.211 52.658 206.099 52.658C221.987 52.658 234.866 65.5374 234.866 81.425ZM194.348 81.425C194.348 87.9153 199.609 93.1766 206.099 93.1766C212.589 93.1766 217.851 87.9153 217.851 81.425C217.851 74.9348 212.589 69.6735 206.099 69.6735C199.609 69.6735 194.348 74.9348 194.348 81.425Z" fill="white"/>
</svg>
